<svg xmlns="http://www.w3.org/2000/svg" width="28" height="28" viewBox="0 0 28 28">
  <defs>
    <style>
      .cls-1 {
        fill-rule: evenodd;
      }
    </style>
  </defs>
  <path id="dove" class="cls-1" d="M926.248,26.888a4.028,4.028,0,0,0-2.928-1.266h0a4.027,4.027,0,0,0-2.927,1.266L918.75,28.6a4.3,4.3,0,0,0-2.031-2.078L915.62,26a16.585,16.585,0,0,1-7.168-6.68,0.665,0.665,0,0,0-.71-0.324,0.684,0.684,0,0,0-.532.582l-0.1.686a16.061,16.061,0,0,0,1.587,9.471,15.632,15.632,0,0,1-8.889.361,0.663,0.663,0,0,0-.72.291,0.712,0.712,0,0,0,.021.8l0.4,0.553a14.711,14.711,0,0,0,7.468,5.469,14.312,14.312,0,0,0,2.948.616l-3.161,3.3-4.886,3.809a0.708,0.708,0,0,0-.245.733,0.681,0.681,0,0,0,.566.51l6.291,0.821a0.624,0.624,0,0,0,.084.006,0.662,0.662,0,0,0,.512-0.245l3.182-3.865,2.19,0.237a7.523,7.523,0,0,0,5.639-1.708A8.186,8.186,0,0,0,923,36.1l0.61-4.79a3.117,3.117,0,0,0,1.8.19c0.07-.01.157-0.023,0.187-0.022a1.406,1.406,0,0,0,1.391-1.406c0.006-.43.013-1,0.013-1.286A2.728,2.728,0,0,0,926.248,26.888Zm-17.916-5.266a17.8,17.8,0,0,0,6.721,5.634l1.1,0.528a2.961,2.961,0,0,1,1.561,1.9l-1.33,1.389-1.852-1.445a4.051,4.051,0,0,0-4-.6l-0.55.216A14.614,14.614,0,0,1,908.332,21.622ZM908.3,45.57l-4.289-.56,3.4-2.646,3.244,0.351Zm17.341-15.52a0.037,0.037,0,0,1-.037.037h0a2.554,2.554,0,0,0-.383.036,1.982,1.982,0,0,1-1.744-.487,0.655,0.655,0,0,0-.664-0.084,0.692,0.692,0,0,0-.406.549l-0.74,5.816a6.794,6.794,0,0,1-2.406,4.416,6.227,6.227,0,0,1-4.66,1.413l-5.927-.641,3.084-3.222a14.225,14.225,0,0,0,4.344-.828,0.7,0.7,0,0,0,.416-0.883,0.668,0.668,0,0,0-.855-0.429,12.943,12.943,0,0,1-4.134.757c-0.042,0-.19,0-0.223,0a13.155,13.155,0,0,1-10.02-4.708,16.947,16.947,0,0,0,8.584-1.015L911,30.335a2.75,2.75,0,0,1,2.717.4l2.321,1.812a0.655,0.655,0,0,0,.7.067,0.665,0.665,0,0,0,.185-0.14l4.417-4.614a2.7,2.7,0,0,1,3.942,0,1.324,1.324,0,0,1,.364.92C925.655,29.059,925.648,29.624,925.642,30.05Z" transform="translate(-899 -19)"/>
</svg>
